:SAMPLES-PER-SECOND 30
:FULLY-SPECIFIED
:DEGREES
924
root  35.784 39.666 11.9125 -179.325 70.7006 -179.621
RightUpLeg  -5.09913 -31.5362 -8.3752
RightLeg  22.1248 -14.1305 -4.78691
RightFoot  -7.67263 -0.179098 3.9592
RightToes  0.000481921 0.542163 -0.142578
Spine  19.6864 -6.85912 -13.9954
Spine1  -3.07359 -13.9659 29.5526
HEad  -11.6516 9.71365 -6.0129
LeftShoulder1  3.34802 -11.468 -15.5883
LeftArm  -10.7278 -41.5589 -34.8663
LeftForeArm  129.361 -81.6669 -90.6114
LeftHand  -0.25398 0.0180481 5.50724
RightShoulder  3.21026 6.93798 24.609
RightArm  -8.15997 -16.0948 49.2541
RightForeArm  -167.288 50.7579 169.237
RightHand  -0.420149 -7.17419 20.5729
LeftUpLeg  -13.8128 8.67676 8.96508
LeftLeg  18.573 -5.45362 -1.72143
LeftFoot  0.922104 0.856903 -8.02212
LeftToes  1.06244e-005 4.65869e-005 -8.65518e-006
925
root  35.8719 39.7915 11.8302 179.104 67.4882 178.644
RightUpLeg  -3.46936 -29.8414 -9.83539
RightLeg  21.2824 -18.5648 -4.83573
RightFoot  -6.98725 -0.217636 4.47119
RightToes  0.000481921 0.542163 -0.142578
Spine  17.988 -5.67414 -9.78323
Spine1  -2.42707 -10.9729 22.7496
HEad  -10.3698 3.83529 -3.16286
LeftShoulder1  3.80215 -11.6321 -18.5649
LeftArm  -0.900513 -33.5977 -44.0337
LeftForeArm  -173.669 -74.2515 -149.276
LeftHand  -0.25398 0.0180481 5.50724
RightShoulder  3.19581 7.00888 24.2463
RightArm  -11.9794 -11.5087 46.7126
RightForeArm  -164.181 50.9473 169.444
RightHand  -1.1405 -10.5029 23.8828
LeftUpLeg  -13.2556 7.27351 7.75868
LeftLeg  16.1836 -6.68958 -1.86976
LeftFoot  2.00496 0.863428 -7.47545
LeftToes  1.06244e-005 4.65869e-005 -8.65518e-006
926
root  35.8914 39.8957 11.6896 178.511 66.7846 177.535
RightUpLeg  -3.15635 -27.0207 -10.3646
RightLeg  20.3434 -21.799 -4.75365
RightFoot  -6.19781 -0.25514 4.74063
RightToes  0.000481921 0.542163 -0.142578
Spine  15.7059 -3.67968 -2.21858
Spine1  -1.51029 -6.00243 11.3164
HEad  -9.87491 -3.20947 0.221966
LeftShoulder1  4.48337 -11.7204 -23.1335
LeftArm  7.3649 -24.1234 -47.1293
LeftForeArm  -162.228 -67.2817 -159.968
LeftHand  -0.25398 0.0180481 5.50724
RightShoulder  3.26628 7.09539 24.6858
RightArm  -15.0653 -1.10752 40.4097
RightForeArm  -169.715 54.6252 168.159
RightHand  -0.923139 -10.4334 16.0647
LeftUpLeg  -12.4864 8.65341 6.90723
LeftLeg  13.8143 -8.31115 -2.16813
LeftFoot  2.58908 0.860868 -7.16927
LeftToes  1.06244e-005 4.65869e-005 -8.65518e-006
927
root  35.73 39.9297 11.4832 177.311 69.3148 175.997
RightUpLeg  -4.52559 -25.9219 -10.2594
RightLeg  20.1353 -20.2365 -5.15133
RightFoot  -5.5847 -0.271954 4.6526
RightToes  0.000481921 0.542163 -0.142578
Spine  14.8011 -0.590511 7.84146
Spine1  -0.629293 0.90184 -3.34602
HEad  -9.44977 -10.4224 2.55113
LeftShoulder1  5.47776 -12.5201 -28.0873
LeftArm  11.1229 -15.3356 -44.4995
LeftForeArm  -160.107 -64.7472 -162.163
LeftHand  -0.25398 0.0180481 5.50724
RightShoulder  3.2369 7.1183 24.332
RightArm  -19.8757 14.7405 31.6854
RightForeArm  159.969 70.0235 146.053
RightHand  -0.124094 -3.25674 -1.42172
LeftUpLeg  -11.6153 11.1241 6.32431
LeftLeg  12.6539 -7.91208 -2.30206
LeftFoot  2.41397 0.802855 -6.77074
LeftToes  1.06244e-005 4.65869e-005 -8.65518e-006
928
root  35.4104 39.8756 11.2828 171.626 74.9117 170.218
RightUpLeg  -7.74231 -25.0333 -10.0835
RightLeg  21.4069 -15.2932 -6.09087
RightFoot  -5.31771 -0.256704 4.18693
RightToes  0.000481921 0.542163 -0.142578
Spine  16.9082 2.96665 16.3083
Spine1  -0.485761 8.25601 -16.7057
HEad  -7.93906 -15.4439 1.91209
LeftShoulder1  6.215 -13.0666 -31.4797
LeftArm  10.1534 -6.55825 -40.082
LeftForeArm  -162.178 -63.8903 -162.611
LeftHand  -0.25398 0.0180481 5.50724
RightShoulder  2.75556 6.7829 20.402
RightArm  -27.4532 34.6819 22.6946
RightForeArm  51.2589 69.8069 31.809
RightHand  -1.09193 6.28788 -12.2776
LeftUpLeg  -10.6662 14.3503 5.50707
LeftLeg  12.837 -5.29427 -2.15667
LeftFoot  1.66105 0.723151 -6.4324
LeftToes  1.06244e-005 4.65869e-005 -8.65518e-006
929
root  35.1566 39.7714 11.1866 157.862 80.2613 156.265
RightUpLeg  -11.1703 -21.0506 -10.7441
RightLeg  23.6762 -13.2186 -6.55505
RightFoot  -5.42468 -0.22611 3.65592
RightToes  0.000481921 0.542163 -0.142578
Spine  20.1658 5.76667 19.6648
Spine1  -1.0864 13.511 -24.7554
HEad  -5.84441 -16.7193 -0.914392
LeftShoulder1  6.36935 -12.8119 -33.0012
LeftArm  5.88015 3.93135 -36.1
LeftForeArm  -163.983 -61.5048 -164.097
LeftHand  -0.25398 0.0180481 5.50724
RightShoulder  1.87934 5.71965 13.2968
RightArm  -36.6227 51.4377 16.281
RightForeArm  43.9106 31.1059 2.28635
RightHand  -1.12749 8.50132 -9.47544
LeftUpLeg  -9.73696 17.528 4.5354
LeftLeg  13.095 -2.603 -2.21405
LeftFoot  0.847624 0.7016 -6.61822
LeftToes  1.06244e-005 4.65869e-005 -8.65518e-006
930
root  35.1668 39.7128 11.1929 149.398 81.1063 147.102
RightUpLeg  -12.8515 -20.77 -11.3926
RightLeg  24.8037 -12.1385 -6.2777
RightFoot  -5.79604 -0.205729 3.43627
RightToes  0.000481921 0.542163 -0.142578
Spine  20.6827 7.1949 17.9409
Spine1  -1.60235 14.823 -25.476
HEad  -5.05727 -15.3403 -2.84189
LeftShoulder1  6.22955 -12.0729 -33.9469
LeftArm  0.0413986 16.3925 -33.5873
LeftForeArm  -163.755 -57.1572 -166.635
LeftHand  -0.25398 0.0180481 5.50724
RightShoulder  1.07181 3.41765 8.2156
RightArm  -42.6725 56.2909 17.1704
RightForeArm  60.5846 22.4666 1.0707
RightHand  -0.079088 6.40179 -1.38753
LeftUpLeg  -9.59782 17.3198 4.05875
LeftLeg  12.4223 -0.886546 -2.63309
LeftFoot  0.395387 0.732236 -7.14129
LeftToes  1.06244e-005 4.65869e-005 -8.65518e-006
